<?xml version="1.0" encoding="UTF-8" standalone="no"?>
<svg
   width="100"
   height="100"
   fill="none"
   version="1.1"
   id="svg2"
   sodipodi:docname="icon.svg"
   xml:space="preserve"
   inkscape:version="1.4 (1:1.4+202410161351+e7c3feb100)"
   inkscape:export-filename="apple-touch-icon.png"
   inkscape:export-xdpi="172.8"
   inkscape:export-ydpi="172.8"
   xmlns:inkscape="http://www.inkscape.org/namespaces/inkscape"
   xmlns:sodipodi="http://sodipodi.sourceforge.net/DTD/sodipodi-0.dtd"
   xmlns="http://www.w3.org/2000/svg"
   xmlns:svg="http://www.w3.org/2000/svg"><defs
     id="defs2" /><sodipodi:namedview
     id="namedview2"
     pagecolor="#ffffff"
     bordercolor="#000000"
     borderopacity="0.25"
     inkscape:showpageshadow="2"
     inkscape:pageopacity="0.0"
     inkscape:pagecheckerboard="0"
     inkscape:deskcolor="#d1d1d1"
     inkscape:zoom="5.7134228"
     inkscape:cx="49.007401"
     inkscape:cy="59.421473"
     inkscape:window-width="1920"
     inkscape:window-height="1011"
     inkscape:window-x="0"
     inkscape:window-y="163"
     inkscape:window-maximized="1"
     inkscape:current-layer="svg2" /><style
     id="style1">@media (prefers-color-scheme:dark){path{fill:#f4b9d6;}}</style><path
     style="fill:#82e0a9;stroke:none;stroke-width:1.05258"
     d="M 17.437126,6.4308942 16.057202,90.628609 c 20.141156,1.701299 59.281323,4.786848 67.569796,7.813327 L 82.777332,1.0789045 17.437126,6.4308942 M 77.359062,89.981271 22.311549,84.792716 22.525865,11.519634 74.512975,7.5564096 M 28.633956,15.979833 V 81.406507 H 41.719298 V 57.416723 c 15.862242,0 13.085331,12.335472 13.085331,24.716749 l 13.085341,0.726956 c 0,-11.716888 2.812816,-25.818961 -8.723557,-32.713331 9.138496,-4.754333 9.094719,-14.93997 8.694948,-23.989785 -0.137867,-3.121032 -0.620992,-8.924801 -3.890038,-10.465802 -2.648928,-1.248678 -7.025764,-0.438821 -9.893649,-0.438642 -8.476727,5.36e-4 -16.930687,0.726965 -25.443718,0.726965 M 41.719298,45.058348 V 21.068572 c 3.18246,0 7.963993,-0.862643 10.617815,1.266573 4.393393,3.524907 3.871892,18.178669 -0.595708,21.456631 -2.678811,1.965496 -6.891202,1.266572 -10.022107,1.266572"
     id="path3"
     sodipodi:nodetypes="ccccccccccccccccssscccssc" /></svg>
